PathFileType	4	(X/Y/Z)	C:\Users\avatar\Documents\avatar\mocap1\10002-20130731010438-Unnamed.trc
DataRate	CameraRate	NumFrames	NumMarkers	Units	OrigDataRate	OrigDataStartFrame	OrigNumFrames
400.00	400.00	      28	0	mm	400.00	657	      1313
Frame#	Time	
		

657	1.640	-113.13381	1287.43152	97.16228	-14.79051	1287.72437	92.21349	1410.96899	1024.46448	967.47540	-521.89874	119.69422	274.23318	-1412.07813	1211.19299	-420.19272	-262.12000	1553.28308	-54.72052	119.75434	749.64349	-68.46054										-626.78790	787.89240	-21.40727																									-167.13722	103.41219	268.23059	-535.46613	118.14109	-36.60886	
658	1.643							1413.65845	1025.59863	968.63788	-522.77582	120.04482	274.46698				-269.24048	1553.56604	-58.04126				-112.67604	1288.23889	98.04256	-12.94321	1290.55151	93.75227	488.46530	1163.70117	167.27434				-358.48578	1098.10925	312.41006	-425.28268	1237.34082	-241.82578	121.77281	751.90729	-69.24621	-623.87415	791.48187	-19.61914	-545.22870	1013.20038	341.37756										-172.19405	104.09116	267.00140	-535.28491	118.22081	-36.95607	
659	1.645	-111.97608	1289.18909	99.02297	-12.59221	1290.92017	94.29870	1414.39172	1025.83142	968.96851	-523.20087	120.43582	274.78354	-934.61017	810.23035	-96.67188	-264.61636	1554.64429	-55.89426	-416.17471	1245.94177	-236.18126										123.62684	753.95898	-69.58635																												-533.88556	118.14581	-37.16952	
660	1.648							1415.15247	1026.11133	969.51166	-523.56006	120.68021	275.04874				-264.72134	1555.07703	-55.78830				-112.20013	1288.54712	102.31897	-13.19588	1291.98633	95.26318	-930.76318	813.69043	-94.75622				-482.63791	1282.51331	182.82327	126.25267	756.61743	-70.74090																						-532.84338	118.70529	-37.15506	
661	1.650	-111.87640	1289.23657	103.46957	-12.96511	1293.02124	95.60795	1415.81360	1026.40027	970.25610	-524.13281	120.80278	275.35611	-110.82551	1274.33264	-182.11906	-266.32593	1555.51868	-55.87965	-930.23871	814.27637	-95.19844										-277.28540	1008.22748	287.76602							-482.42184	1283.02234	184.62013																			-532.60693	118.74290	-37.31035	
662	1.653	-111.29159	1290.46960	104.20488				1416.21191	1026.65955	970.76178	-525.06732	120.99717	275.78336				-263.36658	1556.53589	-54.50071				-927.89203	816.73999	-94.06010	-274.90689	1009.15814	288.21454	130.71448	761.24884	-72.23294				-480.49765	1282.91394	185.27208																									-531.79144	118.30284	-38.38733	
663	1.655				-926.08435	818.14685	-93.69042				-525.57080	121.37062	276.13123	-272.99197	1010.31946	289.06342	-264.83914	1556.92834	-54.87390	-479.59888	1283.27600	185.62665																																								-530.95447	118.30814	-38.70039	
664	1.658	-283.98993	789.76678	39.02266				-272.14221	1010.16620	289.28052	-526.72797	121.06158	276.85776				-263.10312	1557.55530	-53.83549				-422.16238	1284.24670	200.38025																																					-530.62836	118.33193	-38.89111	
665	1.660				-11.62278	1297.78308	100.00931				-527.40399	121.01803	277.38510	-273.16986	792.78534	37.04996	-263.31039	1558.21277	-53.62841	-270.48376	1010.77704	290.13620																																								-530.08789	118.34118	-39.14075	
666	1.663	-271.81192	795.56494	36.76177				-268.85004	1011.38184	290.86511	-537.62567	117.72075	281.97623				-253.02827	1559.71594	-48.43827				-415.61237	1284.87488	201.97412																																					-529.41949	118.31993	-39.22466	
667	1.665				-264.34351	798.71210	34.33336				-540.85236	116.54364	283.95975	-268.04230	1011.19757	291.08548	-251.36583	1560.88379	-47.33680	-416.59158	1286.18298	202.96587																																								-528.26660	118.28733	-39.54854	
668	1.668	-236.51712	1338.38513	48.65859				-263.22064	801.66504	34.61774	-541.78363	117.13298	285.09900				-252.52261	1561.28125	-47.50359				-266.28781	1012.25787	291.85794	-416.40634	1286.77734	203.23090																																		-527.79358	118.24352	-39.54354	
669	1.670				-256.05472	804.70996	32.86304				-541.86945	118.16262	285.39755	-265.60355	1012.13965	292.27631	-255.24457	1561.38977	-48.19006	-266.62961	1362.92480	68.24786				-409.96173	1287.69409	205.28777	-711.01874	72.30123	102.88747																															-527.16730	118.21959	-39.63204	
670	1.673	-248.99414	807.77960	32.26701				-264.60284	1012.11945	292.41742	-541.20953	119.16702	285.80661				-254.02130	1562.69348	-47.09612				-105.36406	1048.67957	541.07367	-409.31464	1288.55493	206.77420																																		-526.57031	118.18444	-39.73885	
671	1.675				-239.79694	811.44739	30.83989				-540.74634	120.36616	286.96008	-263.40942	1012.71106	293.42368	-253.87878	1563.23413	-46.78054	-105.27551	1048.60205	541.85327				-409.00357	1288.60486	206.85178																																		-525.49774	118.08890	-39.73423	
672	1.678	-106.03747	1048.23987	542.82599	-238.57358	814.43610	30.71630				-540.88525	120.90973	287.77164				-248.99469	1564.46948	-44.28135							-406.19131	1289.35327	207.55899																																		-525.08124	118.03411	-39.62656	
673	1.680				-228.58647	817.59540	29.99713				-540.17145	121.80661	289.26074				-242.28172	1565.92566	-40.91569							-404.50250	1290.33997	208.63034																																		-524.69751	117.94163	-39.47034	
674	1.683	1296.99536	1030.24829	928.03687	-226.09390	820.88202	29.41735	-143.08769	1009.89056	268.75089	-540.41052	122.21407	290.38446	329.49530	1441.59741	-74.78974	-243.61922	1566.40405	-41.12682							-401.37552	1291.18835	209.53036																																		-523.42163	117.76543	-39.27923	
675	1.685				-216.61642	825.07379	27.07727	-142.57668	1009.78931	268.80127	-539.75775	122.99100	292.12698				-246.64470	1567.05151	-41.89697	1297.21191	1030.59680	929.30316	-231.95602	1252.89429	-123.35539	-398.19345	1291.22021	211.63820																																		-522.51306	117.71381	-39.36834	
676	1.688	326.21469	1464.84509	-69.88950	-216.77194	829.58270	27.16331	-141.35115	1010.55731	269.62592	-540.32483	123.15618	293.98087	1296.77539	1030.57251	930.14655	-250.36642	1567.89685	-42.98193				-232.31206	1254.43201	-122.30718	-396.91879	1291.45850	212.93552																																		-521.90076	117.60784	-39.23618	
677	1.690				-208.74402	833.36340	25.74623				-530.91504	126.61449	293.59470				-252.63696	1568.36560	-43.17065	319.23715	1475.71667	-65.97728	-230.34213	1256.05969	-122.01318	-397.90070	1291.57288	213.40256	1295.36804	1030.55798	930.94244	-76.58875	1370.97717	129.12111	-259.22076	1012.24194	296.07462																									-521.63013	117.54095	-39.09165	
678	1.692	315.24533	1486.90613	-65.15567	-205.57800	837.48126	25.26081	-1208.69568	1257.39832	-310.66913	-530.80536	127.01107	295.81653	-232.84357	1352.53772	65.29498	-235.38522	1570.43738	-34.62942							-392.84631	1293.00854	214.86487	1295.08386	1030.53247	932.07672							121.75330	1011.09778	213.23543																						-520.51868	117.37549	-38.80690	
679	1.695				-201.21007	840.25238	23.97727				-530.48822	127.52338	298.54242							310.23309	1498.19153	-61.76950	-1196.28955	1260.33252	-304.67554				1291.96509	1029.37451	932.28711	-1343.36096	490.84195	-517.32538	-85.22105	1372.59448	128.79060				-145.17029	1295.76941	271.76526	-532.43317	1018.60352	350.29562																-519.64703	117.19701	-38.51264	
680	1.697	313.75424	1510.67822	-60.08324	-191.12216	844.32715	23.89487	-152.80905	1238.98804	189.92352	-530.45721	128.14059	301.41495	-1336.36658	495.77884	-516.77112	-79.02636	1374.60388	133.07596										1290.70642	1029.06860	933.31665										-145.07843	1296.16467	273.24536	-531.03784	1019.29443	350.71866																-519.02850	116.95245	-37.83794	
681	1.700				-189.05627	848.77441	23.36314				-540.02637	125.31064	306.32040							-240.14841	1572.44922	-35.45707	-404.04535	1476.99841	-189.09665	-1327.34155	502.70288	-514.39624	1289.55920	1029.07068	934.28571	-84.13247	1375.30420	132.49879							-145.51671	1295.95190	273.98163	-530.80231	1019.28241	350.80786																-518.56079	116.81893	-37.51399	
682	1.702	26.98383	1513.37036	15.65817	-182.76814	852.81256	21.82499	-600.45624	194.51076	186.32491	-537.90961	126.31210	309.86215	-232.94098	1574.02161	-31.39153	-1320.63904	507.20743	-514.37567										1286.95166	1028.18494	934.79907				-88.70844	1375.60840	132.54160				-146.21111	1295.65430	274.85541	-526.60974	1018.20087	351.97028																-518.32782	116.68531	-37.13124	
683	1.705				-180.32712	856.48938	21.89769				-537.39734	126.88824	313.07559							-371.85114	1362.13184	45.68656	-603.61896	194.14063	189.72731	-228.62193	1575.12158	-28.62399	1285.85425	1027.98181	935.99744	299.03088	1542.49194	-51.90461	-93.84646	1376.51160	132.01300	-588.25665	107.04053	426.94797	-146.06795	1296.54565	276.30161	-526.68298	1018.21387	351.98553																-517.19299	116.44401	-36.66241	
684	1.707	-369.64679	1363.75513	47.46775	-173.52823	861.12921	20.30549	-607.34314	193.88426	192.76701	-537.92798	126.95443	315.67920	295.34195	1552.98206	-49.42765													1284.70764	1027.81482	937.01202				-93.51614	1377.75073	133.76418	-586.90466	107.90450	430.06027	-146.25310	1296.30688	277.73770	-526.65192	1018.16559	351.98010																-516.71680	116.35772	-36.47669	
